<?xml version="1.0" standalone="no"?>
<!DOCTYPE svg PUBLIC "-//W3C//DTD SVG 20010904//EN"
 "http://www.w3.org/TR/2001/REC-SVG-20010904/DTD/svg10.dtd">
<svg version="1.0" xmlns="http://www.w3.org/2000/svg"
 width="1270.000000pt" height="908.000000pt" viewBox="0 0 1270.000000 908.000000"
 preserveAspectRatio="xMidYMid meet">
<metadata>
Created by potrace 1.16, written by Peter Selinger 2001-2019
</metadata>
<g transform="translate(0.000000,908.000000) scale(0.100000,-0.100000)"
fill="#000000" stroke="none">
<path d="M9540 8686 c-170 -31 -290 -95 -420 -226 -73 -72 -118 -151 -170
-295 -62 -171 -234 -600 -280 -700 -20 -42 -73 -175 -116 -290 -25 -66 -49
-129 -54 -140 -4 -11 -24 -60 -44 -108 -33 -77 -49 -125 -76 -217 -3 -14 -14
-25 -23 -25 -8 0 -98 74 -199 165 -101 91 -213 190 -248 220 -36 30 -92 80
-125 110 -150 135 -231 207 -266 235 -35 29 -213 192 -509 465 -134 124 -203
186 -251 225 -13 11 -67 54 -119 97 -52 42 -144 122 -203 177 -75 70 -116 101
-133 101 -29 0 -56 -21 -293 -220 -101 -85 -214 -180 -251 -210 -58 -47 -416
-364 -430 -380 -3 -3 -48 -41 -100 -85 -88 -73 -238 -203 -250 -215 -29 -31
-144 -120 -156 -120 -17 0 -18 53 -4 370 7 183 7 218 -6 238 l-14 22 -440 0
-440 0 -12 -25 c-9 -20 -9 -93 1 -308 6 -155 12 -471 12 -702 l0 -420 -30 -25
c-16 -14 -53 -45 -82 -69 -30 -24 -115 -102 -190 -175 -138 -134 -354 -336
-399 -373 -14 -12 -79 -67 -145 -123 -66 -56 -158 -132 -205 -168 -130 -101
-190 -153 -190 -166 0 -14 324 -344 400 -407 71 -60 170 -129 185 -129 6 0 24
18 41 40 16 22 56 60 90 85 34 24 117 97 185 163 136 131 188 176 194 171 2
-2 5 -220 7 -484 l3 -480 -100 1 c-55 0 -143 4 -196 9 -53 4 -108 5 -122 1
-36 -9 -50 -39 -42 -92 6 -41 9 -44 48 -55 56 -15 175 -4 202 19 16 14 37 17
105 16 47 -1 91 -2 98 -3 11 -1 13 -31 10 -152 -3 -142 -4 -152 -25 -169 -21
-17 -21 -18 -4 -23 17 -4 20 -19 25 -128 3 -68 8 -344 11 -614 5 -457 11 -555
32 -576 4 -4 125 -4 268 1 166 6 444 5 770 -2 281 -5 731 -7 1003 -4 533 8
882 0 908 -19 14 -10 14 -17 -4 -76 -11 -35 -28 -82 -37 -104 -10 -22 -38 -98
-62 -170 -41 -118 -124 -333 -159 -412 -8 -17 -14 -34 -14 -37 0 -3 -14 -35
-30 -72 -17 -36 -40 -94 -52 -128 -12 -33 -33 -90 -48 -126 l-26 -65 -60 -18
c-232 -70 -225 -67 -289 -131 -61 -61 -103 -133 -124 -214 -9 -32 -9 -57 0
-105 22 -114 101 -207 239 -280 80 -43 314 -141 465 -194 91 -33 106 -35 180
-31 96 6 154 32 233 104 55 49 84 96 108 173 31 103 9 234 -52 300 -19 21 -34
41 -34 45 0 4 51 109 113 234 62 125 124 252 136 282 56 134 124 279 156 330
11 19 40 80 64 135 24 55 51 114 61 131 10 17 37 73 60 125 23 52 57 126 76
165 19 39 37 86 40 105 4 19 11 39 15 45 17 21 196 24 768 13 418 -7 577 -7
585 1 8 8 14 213 19 668 5 361 8 666 8 677 -7 228 -11 1100 -6 1181 9 145 14
152 68 93 23 -25 76 -75 117 -110 41 -35 116 -103 167 -151 51 -49 99 -88 108
-88 9 0 55 35 102 78 305 274 433 403 433 434 0 13 -276 291 -355 358 -73 61
-305 287 -305 297 0 5 22 54 49 109 98 198 258 530 271 564 8 19 40 88 72 153
32 65 58 120 58 122 0 9 114 255 161 347 27 53 64 132 83 175 19 43 67 148
109 233 102 212 111 243 110 365 -1 78 -6 116 -26 175 -118 351 -439 549 -787
486z m292 -295 c35 -16 78 -44 96 -62 27 -27 32 -38 32 -79 0 -52 -33 -203
-56 -259 -17 -40 -12 -50 20 -47 17 2 26 -3 29 -15 4 -13 14 -19 36 -19 l31 0
0 65 c0 63 12 86 23 45 6 -24 3 -57 -9 -84 -6 -16 -4 -18 9 -13 21 8 22 -9 2
-46 -8 -15 -19 -42 -24 -60 -5 -18 -24 -66 -41 -107 -18 -41 -36 -84 -41 -95
-4 -11 -41 -92 -82 -180 -41 -88 -98 -212 -127 -275 -121 -262 -312 -669 -341
-725 -16 -33 -54 -107 -84 -165 -30 -58 -96 -190 -147 -294 -51 -104 -100
-194 -110 -200 -10 -6 -18 -18 -18 -26 0 -12 -2 -12 -9 -2 -6 10 -12 8 -24
-10 -41 -58 -47 -64 -57 -48 -7 11 -11 8 -21 -13 -7 -15 -16 -27 -21 -27 -4 0
-8 -5 -8 -11 0 -6 7 -9 15 -5 11 4 15 -2 15 -24 0 -23 -5 -31 -25 -36 -24 -6
-36 -34 -14 -34 6 0 8 -9 4 -20 -4 -11 -2 -20 4 -20 6 0 11 5 11 10 0 6 4 10
9 10 5 0 4 -13 -2 -30 -6 -16 -15 -30 -19 -30 -4 0 -8 -9 -8 -20 0 -11 -4 -20
-8 -20 -5 0 -16 -24 -25 -52 -10 -29 -36 -82 -59 -118 -23 -36 -95 -171 -160
-300 -65 -129 -125 -241 -132 -250 -8 -8 -29 -46 -46 -85 -18 -38 -43 -93 -56
-122 -23 -49 -44 -76 -44 -54 0 15 69 174 78 180 11 8 59 119 68 156 4 17 20
58 35 92 16 34 29 68 29 75 0 7 9 24 20 38 11 14 20 31 20 39 0 8 14 45 32 83
26 54 36 67 50 62 16 -5 17 -2 9 20 -8 19 -5 36 15 75 13 28 24 56 24 62 0 12
23 68 46 111 8 14 14 35 14 46 0 11 5 22 11 24 6 2 10 12 8 22 -3 12 -21 -16
-51 -78 -27 -53 -48 -101 -48 -107 0 -6 -24 -61 -54 -122 -67 -139 -136 -286
-169 -363 -60 -138 -120 -282 -137 -329 -10 -27 -34 -87 -53 -132 -26 -62 -32
-83 -21 -83 8 0 14 5 14 12 0 6 2 9 5 6 5 -5 -14 -54 -55 -143 -11 -22 -41
-89 -68 -150 -183 -407 -231 -509 -243 -515 -8 -5 -56 6 -114 26 -55 19 -138
46 -185 60 -46 14 -88 31 -93 37 -12 18 12 124 43 192 5 11 28 72 50 135 23
63 45 124 50 135 4 11 23 63 40 115 17 52 35 104 40 115 4 11 31 94 61 185 29
91 70 209 91 263 21 54 49 133 63 175 14 42 41 118 60 167 18 50 45 124 60
165 14 41 30 83 36 92 5 10 9 23 9 29 0 5 12 36 26 67 29 63 45 104 129 332
31 85 61 164 65 175 4 11 16 46 25 78 9 31 27 79 40 105 12 26 35 83 50 127
15 44 36 99 46 122 10 24 19 46 19 50 0 5 6 19 13 33 7 14 33 77 56 140 24 63
52 134 62 157 11 24 19 46 19 49 0 3 6 20 14 37 7 18 21 52 31 77 9 25 21 54
25 65 5 11 16 43 25 70 10 28 26 69 36 92 11 24 19 46 19 49 0 3 6 20 14 37 8
18 24 59 36 92 12 33 28 74 35 90 7 17 27 61 44 98 17 38 31 73 31 78 0 5 4
17 9 27 5 9 17 37 26 62 9 25 21 53 26 62 5 10 9 22 9 28 0 5 11 33 24 62 21
49 31 71 68 167 63 164 143 278 225 319 40 21 157 57 208 66 74 11 173 -2 237
-33z m-3501 -237 c13 -15 85 -79 159 -143 74 -63 137 -118 140 -121 5 -6 249
-222 305 -271 86 -75 243 -215 345 -309 63 -58 162 -146 220 -195 105 -90 273
-241 405 -365 180 -169 279 -259 329 -298 29 -23 30 -24 18 -69 -13 -48 -88
-213 -97 -213 -3 0 -21 18 -41 39 -19 22 -81 80 -137 128 -56 48 -149 133
-207 189 -58 55 -154 145 -215 199 -60 55 -177 163 -260 240 -155 145 -274
251 -311 276 -11 8 -43 33 -70 57 -27 23 -112 92 -189 153 -177 141 -188 150
-317 275 -58 57 -110 104 -115 104 -4 0 -21 -12 -38 -26 -86 -76 -283 -241
-394 -333 -69 -56 -157 -131 -196 -165 -38 -35 -101 -90 -140 -123 -38 -33
-144 -129 -235 -212 -91 -83 -235 -213 -320 -289 -85 -75 -186 -166 -225 -203
-70 -66 -220 -201 -370 -334 -44 -38 -137 -124 -208 -190 -71 -66 -170 -155
-221 -199 -50 -43 -116 -101 -146 -130 -30 -28 -100 -91 -155 -138 -175 -151
-303 -272 -336 -317 l-32 -43 -19 25 c-10 14 -61 60 -112 102 -52 42 -97 82
-99 90 -6 15 5 25 83 77 30 21 87 65 125 99 39 34 86 75 105 92 35 31 121 109
400 362 79 72 192 175 250 230 100 95 267 240 465 405 49 41 148 132 220 201
71 69 148 141 170 160 22 19 42 36 45 39 3 3 75 64 160 135 85 71 191 161 235
200 257 227 352 312 370 330 20 20 141 123 160 137 5 4 66 54 135 110 69 57
163 132 207 167 45 35 84 70 87 77 9 22 41 16 67 -12z m-1786 -526 c1 -2 5
-144 8 -316 l6 -312 -52 -34 c-29 -18 -60 -43 -71 -54 -10 -12 -22 -19 -26
-17 -4 3 -10 -5 -14 -18 -9 -37 -188 -197 -221 -197 -17 0 -18 11 -11 233 3
127 9 340 13 472 4 158 10 243 17 248 10 7 345 2 351 -5z m1812 -180 c90 -80
358 -309 443 -378 41 -34 111 -96 155 -139 128 -123 299 -278 379 -344 109
-91 462 -414 604 -552 95 -92 122 -125 118 -140 -5 -23 -84 -247 -146 -415
-23 -63 -45 -126 -50 -140 -4 -14 -26 -73 -48 -131 -22 -58 -50 -135 -62 -170
-12 -35 -36 -107 -55 -159 -18 -52 -58 -171 -89 -265 -31 -93 -63 -190 -72
-215 -9 -25 -31 -88 -49 -140 -18 -52 -51 -143 -73 -201 -23 -58 -74 -207
-116 -330 -69 -208 -86 -256 -121 -334 -20 -45 -103 -258 -140 -360 -18 -49
-43 -118 -56 -152 -15 -41 -30 -65 -43 -70 -23 -8 -2633 -9 -2641 -1 -3 3 -5
533 -5 1179 0 726 -4 1277 -11 1443 l-12 269 109 104 c60 57 156 145 213 196
58 50 136 122 175 158 143 132 380 346 469 423 51 43 148 133 217 200 69 66
163 153 209 191 45 39 105 90 133 115 28 25 74 62 102 83 28 21 71 58 96 81
25 23 77 68 115 99 39 31 93 76 120 101 28 25 55 45 61 46 6 0 38 -24 71 -52z
m3047 -1825 c87 -83 231 -205 309 -261 31 -24 57 -48 57 -55 0 -7 -14 -23 -31
-36 -16 -12 -62 -52 -100 -88 l-70 -66 -35 42 c-20 23 -66 67 -102 97 -37 31
-104 92 -150 136 l-83 79 21 32 c12 18 38 67 58 109 21 43 41 78 46 78 5 0 41
-30 80 -67z m-5356 -270 c4 -665 2 -855 -9 -869 -8 -10 -8 -14 0 -14 6 0 11
-4 11 -10 0 -17 -36 -47 -53 -44 -15 2 -17 -10 -17 -97 0 -64 -4 -98 -10 -94
-5 3 -10 32 -10 63 0 31 -3 279 -6 551 -5 531 -2 578 43 631 45 54 49 43 51
-117z m4558 -1230 c-2 -87 -7 -420 -11 -739 l-7 -582 -258 -7 c-304 -9 -440
-1 -440 24 0 9 26 70 59 136 113 229 180 370 206 433 14 35 92 195 172 355 80
161 174 347 207 414 34 67 64 122 68 122 5 1 6 -70 4 -156z m-4597 -125 c21
-7 23 -6 16 14 -14 43 -18 138 -5 138 8 0 10 -12 5 -39 -4 -27 -2 -42 8 -52
12 -12 14 -93 16 -474 0 -253 4 -529 8 -612 l6 -153 -46 0 c-25 0 -48 3 -50 8
-9 15 -11 1073 -1 1197 9 128 9 129 14 56 4 -66 7 -75 29 -83z m4803 -57 c-3
-15 -1 -22 6 -17 7 4 8 -7 5 -34 -4 -27 -2 -40 6 -40 9 0 9 -5 1 -21 -8 -14
-9 -29 -2 -47 17 -44 22 -112 9 -112 -7 0 -5 -4 3 -10 8 -5 15 -15 16 -22 0
-7 2 -44 4 -83 l4 -70 6 70 c5 52 7 24 8 -105 2 -180 9 -378 17 -532 5 -87 5
-88 -20 -94 -14 -3 -41 -3 -61 1 l-36 6 6 532 c4 293 10 588 13 657 l7 125 7
-90 c3 -49 4 -101 1 -114z m-1297 -531 c26 -11 55 -20 66 -20 10 0 28 -9 38
-19 11 -11 37 -25 59 -30 38 -11 122 -64 122 -78 0 -8 -121 -270 -173 -373
-34 -68 -56 -83 -85 -57 -9 9 -53 23 -97 31 -81 17 -183 61 -192 84 -3 7 6 36
20 65 14 28 31 70 38 92 7 22 17 44 21 50 4 5 8 15 8 23 0 14 7 31 54 135 14
32 26 62 26 68 0 20 21 49 35 49 7 0 34 -9 60 -20z m-226 -709 c30 -12 66 -30
81 -41 14 -10 42 -21 62 -25 54 -10 64 -27 45 -73 -8 -20 -40 -98 -70 -172
-30 -74 -82 -189 -115 -255 -33 -66 -99 -205 -147 -310 -48 -104 -121 -262
-162 -350 -41 -88 -78 -169 -83 -180 -35 -84 -92 -194 -110 -213 -22 -24 -43
-20 -70 13 -7 8 -31 23 -54 33 -22 10 -60 27 -83 37 -51 22 -54 41 -20 106 13
24 29 60 37 79 7 19 19 49 25 65 7 17 33 82 58 145 68 172 136 340 158 387 10
24 19 46 19 49 0 3 6 20 14 37 7 18 21 52 31 77 10 25 26 64 36 87 11 24 19
45 19 49 0 3 14 38 31 77 45 106 46 109 60 147 27 76 100 232 121 257 10 13
31 8 117 -26z m-937 -1680 c176 -70 203 -83 318 -157 113 -72 170 -131 170
-174 0 -35 -35 -76 -72 -85 -26 -7 -108 21 -168 57 -125 74 -138 80 -235 111
-141 45 -199 69 -223 92 -22 21 -23 25 -11 63 6 23 25 55 42 72 27 27 35 30
93 30 35 0 73 -4 86 -9z"/>
<path d="M9578 7213 c-11 -3 -18 -14 -18 -30 0 -14 -9 -38 -21 -54 -13 -19
-18 -36 -14 -50 5 -15 4 -19 -4 -15 -7 4 -11 -1 -11 -13 0 -33 -11 -50 -27
-44 -11 5 -14 1 -9 -13 7 -24 -3 -41 -29 -45 -16 -4 -19 -11 -17 -42 2 -22 -1
-37 -7 -37 -6 0 -11 -5 -11 -12 0 -6 -7 -20 -17 -30 -14 -16 -14 -18 0 -18 8
0 18 6 20 13 3 6 6 -8 6 -32 1 -37 3 -42 16 -31 8 7 15 17 15 23 0 6 6 18 13
26 8 9 22 43 32 76 9 33 23 69 30 80 6 11 21 47 33 80 11 33 30 82 41 108 12
27 19 53 15 58 -5 9 -8 10 -36 2z"/>
<path d="M9351 6798 c0 -9 -5 -18 -9 -20 -14 -6 -73 -141 -107 -244 -32 -98
-68 -192 -86 -226 -12 -24 -49 -130 -49 -143 0 -6 14 -12 30 -13 31 -2 41 14
15 24 -23 9 -18 21 12 28 15 4 29 3 33 -4 4 -6 7 10 8 35 0 51 8 67 22 45 12
-20 20 -9 13 18 -3 12 -13 22 -22 22 -13 0 -11 4 6 18 19 14 22 23 16 55 -4
25 0 50 10 75 9 20 24 63 33 96 9 32 24 66 34 76 16 16 22 35 32 95 2 11 7 23
11 26 5 4 7 17 4 30 -2 13 -5 17 -6 7z"/>
<path d="M6155 7080 c-129 -17 -222 -55 -347 -143 -193 -134 -284 -266 -364
-522 -26 -83 -26 -313 0 -400 55 -188 110 -283 225 -393 196 -186 361 -253
621 -254 152 0 209 12 329 68 93 44 164 99 266 205 94 98 136 156 176 245 129
284 100 576 -82 839 -28 41 -82 105 -120 141 -113 111 -166 139 -375 204 -42
14 -256 20 -329 10z m300 -245 c118 -39 235 -105 235 -133 0 -10 -13 -26 -30
-35 -20 -12 -33 -31 -40 -57 -9 -34 -15 -40 -38 -40 -42 0 -56 -13 -42 -39 16
-31 4 -61 -25 -61 -31 0 -39 -15 -36 -67 1 -24 -5 -58 -14 -77 -9 -19 -14 -44
-11 -54 4 -13 1 -22 -9 -26 -13 -5 -14 -10 -5 -27 6 -11 9 -28 6 -36 -8 -20
20 -63 40 -63 13 0 15 -6 10 -27 -21 -83 -22 -80 32 -107 49 -25 50 -26 39
-55 -14 -39 0 -65 58 -109 67 -49 72 -65 33 -101 -46 -43 -181 -107 -252 -120
-77 -14 -171 -14 -238 0 -64 14 -244 97 -293 136 -41 32 -44 49 -12 59 69 21
109 48 129 88 11 22 37 55 57 73 57 48 97 158 95 261 -1 59 -6 79 -41 145 -8
16 -13 39 -10 53 3 19 0 24 -16 24 -30 0 -57 29 -57 61 0 43 -10 59 -36 59
-17 0 -24 6 -24 20 0 14 -18 32 -55 56 -61 39 -62 46 -8 95 55 50 141 91 243
115 71 18 248 11 315 -11z m-682 -315 c9 -23 22 -34 50 -42 37 -11 38 -13 32
-48 -6 -35 -4 -38 27 -49 54 -21 63 -27 66 -51 2 -14 -7 -33 -24 -51 -22 -24
-24 -29 -10 -29 23 0 66 -45 66 -69 0 -13 -15 -30 -41 -47 -32 -20 -40 -30
-36 -47 22 -95 23 -87 -16 -87 -36 0 -38 -2 -96 -80 -16 -21 -23 -23 -47 -15
-40 14 -63 68 -86 202 -19 105 -20 127 -9 201 13 90 31 145 68 205 28 45 41
47 56 7z m1077 5 c29 -31 49 -161 50 -327 1 -124 -8 -176 -41 -236 -38 -68
-43 -70 -89 -26 -22 21 -50 44 -63 50 -17 10 -22 21 -22 56 0 40 -3 44 -37 60
-41 20 -48 41 -23 74 19 25 19 60 1 67 -11 5 -13 13 -6 36 4 16 6 32 3 35 -3
3 -3 17 1 31 5 20 13 25 36 25 35 0 60 31 60 75 0 22 10 40 37 67 46 43 62 46
93 13z"/>
<path d="M5685 4920 l-120 -5 -3 -225 c-1 -124 1 -257 5 -295 l8 -70 35 3 c19
1 156 5 305 8 148 3 270 6 270 7 1 1 -2 130 -7 286 -6 211 -11 287 -20 293
-14 8 -274 8 -473 -2z"/>
<path d="M6373 4923 c-23 -2 -46 -10 -52 -17 -8 -9 -10 -103 -9 -297 l3 -284
55 2 c30 1 160 5 288 9 l232 7 0 287 0 287 -142 6 c-144 7 -298 7 -375 0z"/>
<path d="M5566 4183 c-2 -10 -4 -139 -5 -286 0 -198 3 -269 12 -273 7 -2 145
-1 307 3 l295 8 0 260 c1 143 -3 270 -7 283 l-8 22 -294 0 c-272 0 -295 -1
-300 -17z"/>
<path d="M6317 4193 c-8 -8 -9 -509 -1 -540 8 -27 27 -29 333 -24 l241 3 0
284 0 284 -283 0 c-156 0 -287 -3 -290 -7z"/>
<path d="M10301 4310 c-52 -12 -69 -52 -52 -118 10 -34 17 -43 47 -52 47 -16
162 -9 175 11 13 22 11 103 -5 124 -13 18 -86 46 -116 44 -8 -1 -30 -5 -49 -9z"/>
<path d="M1733 4300 c-32 -13 -63 -68 -63 -112 0 -35 2 -37 51 -53 63 -21 164
-17 203 8 48 32 31 136 -27 157 -36 12 -133 12 -164 0z"/>
<path d="M2185 4300 c-34 -4 -43 -11 -59 -43 -12 -26 -16 -48 -12 -72 6 -29
13 -35 53 -49 66 -23 134 -21 167 5 22 18 26 28 26 74 0 49 -3 56 -27 68 -35
18 -95 25 -148 17z"/>
<path d="M2578 4287 c-28 -26 -37 -72 -22 -112 10 -24 78 -55 122 -55 44 0
103 18 114 34 11 16 9 118 -1 135 -7 11 -35 16 -98 19 -83 4 -89 3 -115 -21z"/>
<path d="M3000 4298 c-18 -10 -27 -25 -32 -58 -10 -56 -4 -74 28 -88 35 -16
156 -15 178 1 16 11 18 24 14 75 -2 34 -8 65 -12 69 -14 14 -150 14 -176 1z"/>
<path d="M9565 4298 c-27 -4 -75 -10 -105 -13 -79 -9 -100 -14 -100 -25 0 -6
8 -10 17 -10 13 0 14 -3 5 -12 -20 -20 -14 -32 26 -49 20 -9 55 -24 77 -34 47
-20 138 -30 188 -21 41 8 57 40 57 112 0 37 -3 44 -22 48 -45 10 -94 11 -143
4z"/>
<path d="M9911 4292 c-19 -15 -22 -25 -19 -82 l3 -64 43 -13 c53 -15 130 -3
149 23 21 29 17 110 -7 134 -27 27 -137 29 -169 2z"/>
<path d="M10672 4275 c-7 -14 -12 -44 -12 -65 0 -32 6 -43 33 -64 28 -21 45
-26 94 -26 76 0 94 18 101 97 6 75 -5 83 -118 83 -83 0 -87 -1 -98 -25z"/>
<path d="M11063 4283 c-26 -5 -39 -53 -29 -108 8 -41 40 -54 87 -35 60 25 77
83 34 125 -23 24 -43 28 -92 18z"/>
<path d="M2158 3938 c-42 -11 -58 -43 -58 -114 0 -57 15 -64 129 -64 116 0
131 11 131 99 0 51 -3 62 -22 75 -25 18 -120 20 -180 4z"/>
<path d="M2592 3943 c-30 -6 -62 -59 -62 -103 0 -57 22 -74 107 -86 64 -8 116
8 132 42 14 31 14 89 1 114 -18 33 -99 48 -178 33z"/>
<path d="M2971 3928 c-25 -26 -36 -76 -27 -121 8 -43 37 -57 115 -57 84 0 101
17 108 103 8 90 1 97 -98 97 -67 0 -81 -3 -98 -22z"/>
<path d="M10306 3940 c-40 -13 -46 -25 -46 -97 0 -60 1 -63 28 -70 32 -9 181
-9 205 0 14 5 17 20 17 74 0 37 -4 74 -8 81 -11 16 -156 25 -196 12z"/>
<path d="M1765 3928 c-95 -25 -121 -78 -67 -139 26 -29 34 -32 93 -33 115 -2
139 18 139 114 0 39 -4 52 -19 60 -24 12 -93 11 -146 -2z"/>
<path d="M3380 3933 c-46 -9 -60 -31 -60 -94 0 -33 5 -61 11 -65 7 -4 50 -7
96 -7 104 0 123 13 123 83 0 62 -22 83 -93 86 -28 1 -63 0 -77 -3z"/>
<path d="M10742 3933 c-12 -2 -27 -14 -33 -25 -13 -25 -3 -119 14 -130 19 -12
213 -9 240 3 14 6 31 22 38 35 15 29 29 31 29 5 0 -16 7 -18 45 -17 49 1 65
15 65 54 0 27 -23 38 -53 25 -27 -12 -89 3 -132 32 -22 15 -47 20 -110 22 -44
0 -90 -1 -103 -4z"/>
<path d="M9500 3921 c-65 -14 -130 -64 -130 -99 0 -39 160 -72 275 -57 l55 6
0 69 c0 38 -4 71 -9 74 -16 10 -155 15 -191 7z"/>
<path d="M9887 3923 c-36 -9 -62 -104 -38 -142 10 -15 125 -27 166 -17 17 4
31 18 41 41 19 47 19 111 -2 119 -18 7 -140 6 -167 -1z"/>
<path d="M2950 1636 l0 -366 65 0 65 0 0 135 c0 105 3 137 13 141 8 3 79 6
158 7 l144 2 3 -137 3 -138 64 0 65 0 0 345 0 345 -65 0 -65 0 0 -134 c0 -113
-2 -135 -16 -140 -9 -3 -81 -6 -160 -6 l-144 0 0 150 0 150 -49 0 c-27 0 -56
3 -65 6 -14 6 -16 -30 -16 -360z"/>
<path d="M4844 1939 c3 -30 7 -188 8 -352 l3 -298 58 3 59 3 0 195 c-1 198 4
244 25 218 5 -7 25 -40 42 -73 26 -49 158 -195 165 -183 1 2 13 25 27 52 25
52 143 186 163 186 8 0 12 -61 14 -203 2 -111 5 -203 6 -204 1 -1 30 1 65 5
l63 7 -1 245 c-2 229 -11 353 -32 407 -7 19 -16 23 -47 23 -49 0 -75 -20 -150
-113 -80 -99 -92 -118 -92 -148 0 -14 -3 -29 -6 -32 -10 -10 -116 96 -200 200
-41 50 -82 94 -92 97 -9 2 -32 8 -51 11 l-34 7 7 -53z"/>
<path d="M5943 1981 c-28 -4 -54 -9 -57 -11 -2 -3 -5 -93 -5 -200 -1 -107 -1
-245 -2 -306 l0 -111 58 -6 c32 -3 62 -2 67 3 18 18 6 161 -19 223 -7 16 0 17
102 11 91 -6 114 -4 141 10 31 16 49 53 39 79 -6 17 -84 35 -176 42 -41 2 -75
6 -76 7 -2 2 -4 31 -6 66 l-4 62 153 3 c174 4 174 3 170 82 l-3 50 -165 1
c-91 1 -188 -1 -217 -5z"/>
<path d="M7619 1988 c-9 -58 -21 -686 -13 -690 5 -3 41 -7 79 -9 l70 -4 -3
103 c-4 116 7 142 58 142 32 0 52 -21 123 -130 83 -127 73 -119 145 -113 34 3
62 10 62 15 0 6 -8 22 -18 36 -11 15 -38 63 -61 107 l-42 80 25 22 c14 12 32
26 39 30 32 19 59 76 64 131 7 76 -10 135 -55 184 -56 62 -96 75 -252 82 -74
4 -154 9 -177 12 -24 3 -43 4 -44 2z m341 -161 c72 -25 79 -118 14 -174 -34
-30 -43 -33 -101 -33 -62 0 -100 11 -115 34 -9 13 -10 148 -2 170 5 13 22 16
88 15 44 0 97 -5 116 -12z"/>
<path d="M8965 1981 l-50 -6 -7 -45 c-3 -25 -7 -125 -7 -222 -1 -97 -5 -188
-11 -202 -10 -27 -102 -86 -134 -86 -36 0 -106 41 -122 72 -16 31 -33 239 -34
406 l0 83 -65 -3 -66 -3 -5 -227 c-5 -193 -3 -236 11 -284 21 -71 52 -118 102
-152 36 -25 45 -27 149 -27 104 0 114 2 168 30 68 35 109 87 130 159 9 33 16
126 19 260 4 127 10 213 16 219 6 6 11 17 11 24 0 14 -18 14 -105 4z"/>
<path d="M4135 1970 c-27 -4 -63 -13 -78 -19 -85 -33 -171 -125 -183 -193 -3
-18 -10 -46 -16 -61 -13 -34 5 -151 32 -212 74 -164 267 -241 417 -168 72 36
167 128 195 190 16 35 21 68 21 123 1 97 -14 146 -67 222 -33 49 -54 69 -97
90 -61 30 -145 41 -224 28z m165 -168 c73 -36 92 -72 88 -164 -4 -78 -20 -105
-93 -158 -42 -30 -57 -35 -104 -35 -111 1 -211 102 -211 215 0 97 116 187 225
173 22 -3 65 -17 95 -31z"/>
<path d="M9438 1973 c-5 -10 8 -443 17 -580 l7 -101 51 -4 c29 -3 55 -3 60 -1
4 2 7 69 7 147 0 154 8 266 20 266 4 0 54 -57 111 -127 153 -188 249 -283 287
-283 16 0 35 6 41 13 7 9 11 101 12 278 0 180 5 282 14 321 7 31 10 59 7 62
-3 3 -38 6 -79 6 l-73 0 -2 -132 c-2 -73 -2 -166 -1 -205 1 -40 -2 -73 -6 -73
-4 0 -27 24 -50 53 -67 81 -314 348 -333 358 -20 11 -85 12 -90 2z"/>
</g>
</svg>
